<svg width="278" height="72" viewBox="0 0 278 72" fill="none" xmlns="http://www.w3.org/2000/svg">
<path d="M83.0537 66.9327C82.0136 66.9327 81.0191 66.7767 80.0701 66.4647C79.121 66.1396 78.3735 65.7236 77.8275 65.2166L78.549 63.6956C79.069 64.1506 79.7321 64.5276 80.5381 64.8266C81.3441 65.1256 82.1826 65.2751 83.0537 65.2751C83.8467 65.2751 84.4902 65.1841 84.9842 65.0021C85.4783 64.8201 85.8423 64.5731 86.0763 64.2611C86.3103 63.9361 86.4273 63.5721 86.4273 63.169C86.4273 62.701 86.2713 62.324 85.9593 62.038C85.6603 61.752 85.2638 61.5245 84.7697 61.3555C84.2887 61.1735 83.7557 61.0175 83.1707 60.8875C82.5857 60.7575 81.9941 60.608 81.3961 60.4389C80.8111 60.2569 80.2716 60.0294 79.7776 59.7564C79.2965 59.4834 78.9065 59.1194 78.6075 58.6644C78.3085 58.1964 78.159 57.5983 78.159 56.8703C78.159 56.1683 78.341 55.5248 78.705 54.9397C79.082 54.3417 79.654 53.8672 80.4211 53.5162C81.2011 53.1522 82.1891 52.9702 83.3852 52.9702C84.1782 52.9702 84.9647 53.0742 85.7448 53.2822C86.5248 53.4902 87.2008 53.7892 87.7728 54.1792L87.1293 55.7393C86.5443 55.3493 85.9268 55.0698 85.2768 54.9007C84.6267 54.7187 83.9962 54.6277 83.3852 54.6277C82.6182 54.6277 81.9876 54.7252 81.4936 54.9202C80.9996 55.1153 80.6356 55.3753 80.4016 55.7003C80.1806 56.0253 80.0701 56.3893 80.0701 56.7923C80.0701 57.2733 80.2196 57.6568 80.5186 57.9429C80.8306 58.2289 81.2271 58.4564 81.7081 58.6254C82.2021 58.7944 82.7417 58.9504 83.3267 59.0934C83.9117 59.2234 84.4967 59.3729 85.0817 59.5419C85.6798 59.7109 86.2193 59.9319 86.7003 60.2049C87.1943 60.4779 87.5908 60.842 87.8898 61.297C88.1889 61.752 88.3384 62.337 88.3384 63.052C88.3384 63.7411 88.1499 64.3846 87.7728 64.9826C87.3958 65.5676 86.8108 66.0421 86.0178 66.4062C85.2377 66.7572 84.2497 66.9327 83.0537 66.9327ZM117.498 66.7767V54.8227H112.818V53.1262H124.109V54.8227H119.429V66.7767H117.498ZM155.431 66.9327C153.637 66.9327 152.227 66.4192 151.2 65.3921C150.173 64.3651 149.659 62.8635 149.659 60.8875V53.1262H151.609V60.8095C151.609 62.3305 151.941 63.4421 152.604 64.1441C153.28 64.8461 154.229 65.1971 155.451 65.1971C156.686 65.1971 157.635 64.8461 158.298 64.1441C158.974 63.4421 159.312 62.3305 159.312 60.8095V53.1262H161.204V60.8875C161.204 62.8635 160.69 64.3651 159.663 65.3921C158.649 66.4192 157.238 66.9327 155.431 66.9327ZM188.992 66.7767V53.1262H194.745C196.201 53.1262 197.482 53.4122 198.587 53.9842C199.705 54.5562 200.569 55.3558 201.18 56.3828C201.804 57.4098 202.116 58.5994 202.116 59.9514C202.116 61.3035 201.804 62.493 201.18 63.5201C200.569 64.5471 199.705 65.3466 198.587 65.9186C197.482 66.4907 196.201 66.7767 194.745 66.7767H188.992ZM190.943 65.0801H194.628C195.759 65.0801 196.734 64.8656 197.553 64.4366C198.385 64.0076 199.029 63.4096 199.484 62.6425C199.939 61.8625 200.166 60.9655 200.166 59.9514C200.166 58.9244 199.939 58.0274 199.484 57.2603C199.029 56.4933 198.385 55.8953 197.553 55.4663C196.734 55.0373 195.759 54.8227 194.628 54.8227H190.943V65.0801ZM228.894 66.7767V53.1262H230.844V66.7767H228.894ZM264.884 66.9327C263.844 66.9327 262.876 66.7572 261.979 66.4062C261.095 66.0551 260.327 65.5676 259.677 64.9436C259.027 64.3066 258.52 63.5656 258.156 62.7205C257.792 61.8755 257.61 60.9525 257.61 59.9514C257.61 58.9504 257.792 58.0274 258.156 57.1823C258.52 56.3373 259.027 55.6028 259.677 54.9787C260.327 54.3417 261.095 53.8477 261.979 53.4967C262.863 53.1457 263.831 52.9702 264.884 52.9702C265.924 52.9702 266.88 53.1457 267.751 53.4967C268.635 53.8347 269.402 54.3222 270.052 54.9592C270.715 55.5833 271.222 56.3178 271.573 57.1628C271.937 58.0079 272.119 58.9374 272.119 59.9514C272.119 60.9655 271.937 61.895 271.573 62.74C271.222 63.5851 270.715 64.3261 270.052 64.9631C269.402 65.5871 268.635 66.0746 267.751 66.4257C266.88 66.7637 265.924 66.9327 264.884 66.9327ZM264.884 65.1971C265.638 65.1971 266.334 65.0671 266.971 64.8071C267.621 64.5471 268.18 64.1831 268.648 63.7151C269.129 63.234 269.499 62.675 269.759 62.038C270.032 61.401 270.169 60.7055 270.169 59.9514C270.169 59.1974 270.032 58.5019 269.759 57.8649C269.499 57.2278 269.129 56.6753 268.648 56.2073C268.18 55.7263 267.621 55.3558 266.971 55.0958C266.334 54.8357 265.638 54.7057 264.884 54.7057C264.117 54.7057 263.409 54.8357 262.759 55.0958C262.122 55.3558 261.563 55.7263 261.082 56.2073C260.6 56.6753 260.223 57.2278 259.95 57.8649C259.69 58.5019 259.56 59.1974 259.56 59.9514C259.56 60.7055 259.69 61.401 259.95 62.038C260.223 62.675 260.6 63.234 261.082 63.7151C261.563 64.1831 262.122 64.5471 262.759 64.8071C263.409 65.0671 264.117 65.1971 264.884 65.1971Z" fill="#C803BE"/>
<path d="M90.4444 38.546C88.2863 38.546 86.2842 38.208 84.4382 37.532C82.6181 36.83 81.032 35.8419 79.68 34.5679C78.3539 33.2938 77.3139 31.7988 76.5599 30.0827C75.8058 28.3407 75.4288 26.4296 75.4288 24.3495C75.4288 22.2694 75.8058 20.3714 76.5599 18.6553C77.3139 16.9132 78.3539 15.4052 79.68 14.1311C81.032 12.8571 82.6181 11.8821 84.4382 11.206C86.2842 10.504 88.2863 10.153 90.4444 10.153C92.9665 10.153 95.2155 10.595 97.1916 11.479C99.1937 12.3631 100.858 13.6371 102.184 15.3012L97.2696 19.7473C96.3856 18.7073 95.4105 17.9143 94.3445 17.3683C93.3045 16.8222 92.1344 16.5492 90.8344 16.5492C89.7163 16.5492 88.6893 16.7312 87.7533 17.0952C86.8172 17.4593 86.0112 17.9923 85.3352 18.6943C84.6852 19.3703 84.1651 20.1894 83.7751 21.1514C83.4111 22.1134 83.2291 23.1795 83.2291 24.3495C83.2291 25.5196 83.4111 26.5856 83.7751 27.5476C84.1651 28.5097 84.6852 29.3417 85.3352 30.0437C86.0112 30.7197 86.8172 31.2398 87.7533 31.6038C88.6893 31.9678 89.7163 32.1498 90.8344 32.1498C92.1344 32.1498 93.3045 31.8768 94.3445 31.3308C95.4105 30.7847 96.3856 29.9917 97.2696 28.9517L102.184 33.3978C100.858 35.0359 99.1937 36.3099 97.1916 37.22C95.2155 38.104 92.9665 38.546 90.4444 38.546ZM118.823 38.546C116.639 38.546 114.624 38.195 112.778 37.493C110.932 36.791 109.32 35.8029 107.942 34.5289C106.59 33.2288 105.537 31.7208 104.783 30.0047C104.029 28.2887 103.652 26.4036 103.652 24.3495C103.652 22.2954 104.029 20.4104 104.783 18.6943C105.537 16.9782 106.59 15.4832 107.942 14.2091C109.32 12.9091 110.932 11.9081 112.778 11.206C114.624 10.504 116.639 10.153 118.823 10.153C121.033 10.153 123.048 10.504 124.868 11.206C126.714 11.9081 128.313 12.9091 129.665 14.2091C131.018 15.4832 132.071 16.9782 132.825 18.6943C133.605 20.4104 133.995 22.2954 133.995 24.3495C133.995 26.4036 133.605 28.3017 132.825 30.0437C132.071 31.7598 131.018 33.2548 129.665 34.5289C128.313 35.8029 126.714 36.791 124.868 37.493C123.048 38.195 121.033 38.546 118.823 38.546ZM118.823 32.1498C119.863 32.1498 120.825 31.9678 121.709 31.6038C122.619 31.2398 123.399 30.7197 124.049 30.0437C124.725 29.3417 125.245 28.5097 125.609 27.5476C125.999 26.5856 126.194 25.5196 126.194 24.3495C126.194 23.1535 125.999 22.0874 125.609 21.1514C125.245 20.1894 124.725 19.3703 124.049 18.6943C123.399 17.9923 122.619 17.4593 121.709 17.0952C120.825 16.7312 119.863 16.5492 118.823 16.5492C117.783 16.5492 116.808 16.7312 115.898 17.0952C115.014 17.4593 114.234 17.9923 113.558 18.6943C112.908 19.3703 112.388 20.1894 111.998 21.1514C111.634 22.0874 111.452 23.1535 111.452 24.3495C111.452 25.5196 111.634 26.5856 111.998 27.5476C112.388 28.5097 112.908 29.3417 113.558 30.0437C114.234 30.7197 115.014 31.2398 115.898 31.6038C116.808 31.9678 117.783 32.1498 118.823 32.1498ZM138.039 38V10.699H144.396L159.451 28.8737H156.448V10.699H164.014V38H157.657L142.602 19.8253H145.605V38H138.039ZM169.461 38V10.699H175.818L190.873 28.8737H187.87V10.699H195.436V38H189.079L174.024 19.8253H177.027V38H169.461ZM207.981 21.2684H220.657V27.0406H207.981V21.2684ZM208.528 32.0328H222.802V38H200.883V10.699H222.295V16.6662H208.528V32.0328ZM233.991 31.9548L233.562 23.2965L245.301 10.699H253.803L242.103 23.3745L237.813 27.8596L233.991 31.9548ZM227.087 38V10.699H234.732V38H227.087ZM245.418 38L236.526 26.7286L241.557 21.3464L254.388 38H245.418ZM260.207 38V16.8222H251.822V10.699H276.276V16.8222H267.929V38H260.207Z" fill="#C803BE"/>
<g clip-path="url(#clip0_2013_1235)">
<path d="M33.7283 9.70725C31.3902 8.42157 29.0509 7.1359 26.7127 5.85022C17.8081 10.7498 8.90461 15.6495 0 20.5491C8.8903 24.7702 17.7806 28.9913 26.6709 33.2114C39.4889 26.326 43.2859 24.3759 51.6769 19.5313C48.3546 17.7368 47.7518 17.4991 44.4284 15.7046C38.8131 18.7005 32.4272 22.1286 26.8118 25.1246C23.2748 23.5839 19.7379 21.072 16.2009 19.5313C22.043 16.2566 27.8851 12.9819 33.7261 9.70725H33.7283Z" fill="#C803BE"/>
<path d="M53.6274 23.4006V30.3082C47.0918 33.5505 40.5562 36.7917 34.0205 40.034V44.4064C40.5562 41.163 47.0918 37.9196 53.6274 34.6763V51.335C45.1918 55.9991 36.755 60.6642 28.3193 65.3283V59.1852C34.7812 55.6944 41.2431 52.2025 47.706 48.7118C47.7016 47.6173 47.6983 45.9827 47.6939 44.8882C41.2354 48.1986 34.7779 51.5089 28.3193 54.8182V36.0008C36.755 32.0185 45.1918 26.4079 53.6274 22.4255V23.4006Z" fill="#C803BE"/>
<path d="M5.85531 26.9156C5.87513 34.043 5.89384 41.1705 5.91366 48.2979C12.3062 51.9269 18.6998 55.556 25.0923 59.1851V65.3271C16.7282 60.7333 8.36411 56.1394 0 51.5455V24.152C1.95177 25.0736 3.90354 25.9941 5.85531 26.9156Z" fill="#C803BE"/>
<path d="M15.5102 34.6752C15.519 34.9161 15.5564 36.9905 13.7995 38.4156C12.0183 39.8611 9.91574 39.4052 9.68457 39.3512C10.8041 40.3354 12.5335 42.1084 13.8424 44.7921C15.0192 47.2057 15.3869 49.3957 15.5102 50.8067C15.4782 49.0737 16.4029 47.4661 17.9144 46.6406C20.0037 45.4997 22.0986 46.4645 22.2891 46.5553C21.1156 45.6683 19.3455 44.1017 17.8769 41.6719C16.1718 38.8499 15.6764 36.1943 15.5113 34.6741L15.5102 34.6752Z" fill="#C803BE"/>
</g>
<defs>
<clipPath id="clip0_2013_1235">
<rect width="53.6269" height="59.4771" fill="white" transform="translate(0 5.85028)"/>
</clipPath>
</defs>
</svg>
